<svg width="500" height="500" xmlns="http://www.w3.org/2000/svg" xmlns:xlink="http://www.w3.org/1999/xlink" xml:space="preserve" overflow="hidden"><g transform="translate(-2107 -2085)"><path d="M2367.42 2445.42 2367.42 2473.02 2346.58 2473.02 2346.58 2445.42C2334.6 2441.25 2325.75 2429.79 2325.75 2415.73 2325.75 2398.54 2339.81 2384.48 2357 2384.48 2374.19 2384.48 2388.25 2398.54 2388.25 2415.73 2388.25 2429.27 2379.4 2440.73 2367.42 2445.42ZM2278.88 2254.27C2278.88 2211.04 2313.77 2176.15 2357 2176.15 2400.23 2176.15 2435.12 2211.04 2435.12 2254.27L2435.12 2312.08 2357 2306.35 2278.88 2312.08 2278.88 2254.27ZM2466.38 2314.17 2466.38 2254.27C2466.38 2193.85 2417.42 2144.9 2357 2144.9 2296.58 2144.9 2247.62 2193.85 2247.62 2254.27L2247.62 2314.17 2211.17 2316.77 2211.17 2514.69 2357 2525.1 2502.83 2514.69 2502.83 2316.77 2466.38 2314.17Z" fill="#2F54EB"/></g></svg>